<svg width="175" height="250" viewBox="0 0 175 250" fill="none" xmlns="http://www.w3.org/2000/svg">
<path fill-rule="evenodd" clip-rule="evenodd" d="M0.949219 46.7736C0.949219 20.9413 21.8908 0 47.7237 0H127.983C153.816 0 174.758 20.9413 174.758 46.7736C174.758 63.131 166.361 77.5272 153.643 85.8873C166.361 94.2475 174.758 108.644 174.758 125.001C174.758 150.833 153.816 171.775 127.983 171.775H126.967C114.857 171.775 103.821 167.172 95.5141 159.621V202.718C95.5141 228.895 74.0252 250 47.976 250C22.2074 250 0.949219 229.123 0.949219 203.226C0.949219 186.87 9.34511 172.474 22.0624 164.114C9.34511 155.753 0.949219 141.358 0.949219 125.001C0.949219 108.644 9.34582 94.2475 22.064 85.8873C9.34581 77.5272 0.949219 63.131 0.949219 46.7736ZM80.1927 93.5485H47.7237C30.3526 93.5485 16.2706 107.63 16.2706 125.001C16.2706 142.306 30.2456 156.346 47.5255 156.453C47.5915 156.453 47.6576 156.452 47.7237 156.452H80.1927V93.5485ZM95.5141 125.001C95.5141 142.372 109.596 156.454 126.967 156.454H127.983C145.354 156.454 159.436 142.372 159.436 125.001C159.436 107.63 145.354 93.5485 127.983 93.5485H126.967C109.596 93.5485 95.5141 107.63 95.5141 125.001ZM47.7237 171.775C47.6576 171.775 47.5916 171.775 47.5256 171.774C30.2457 171.881 16.2706 185.922 16.2706 203.226C16.2706 220.533 30.5407 234.679 47.976 234.679C65.6918 234.679 80.1927 220.306 80.1927 202.718V171.775H47.7237ZM47.7237 15.3212H80.1927V78.2262H47.7237C30.3526 78.2262 16.2706 64.1445 16.2706 46.7736C16.2706 29.403 30.3526 15.3212 47.7237 15.3212ZM95.5141 78.2262V15.3212H127.983C145.354 15.3212 159.436 29.403 159.436 46.7736C159.436 64.1445 145.354 78.2262 127.983 78.2262H95.5141Z" fill="white"/>
</svg>
