<svg width="255" height="250" viewBox="0 0 255 250" fill="none" xmlns="http://www.w3.org/2000/svg">
<path fill-rule="evenodd" clip-rule="evenodd" d="M127.981 0C57.6297 0 0.757568 57.2914 0.757568 128.169C0.757568 184.825 37.1975 232.783 87.7493 249.757C94.0696 251.033 96.3847 246.999 96.3847 243.606C96.3847 240.634 96.1763 230.45 96.1763 219.838C60.7859 227.478 53.4161 204.559 53.4161 204.559C47.7287 189.705 39.3016 185.887 39.3016 185.887C27.7184 178.036 40.1454 178.036 40.1454 178.036C52.9943 178.885 59.7364 191.192 59.7364 191.192C71.1088 210.713 89.4342 205.197 96.8065 201.801C97.8586 193.525 101.231 187.796 104.812 184.614C76.5853 181.642 46.8875 170.609 46.8875 121.377C46.8875 107.372 51.9396 95.9137 59.9448 87.0022C58.6817 83.82 54.2573 70.6612 61.2104 53.0493C61.2104 53.0493 71.9525 49.6534 96.1737 66.2055C106.544 63.3999 117.238 61.9727 127.981 61.9607C138.723 61.9607 149.673 63.4477 159.785 66.2055C184.009 49.6534 194.751 53.0493 194.751 53.0493C201.704 70.6612 197.277 83.82 196.014 87.0022C204.23 95.9137 209.074 107.372 209.074 121.377C209.074 170.609 179.376 181.429 150.939 184.614C155.574 188.645 159.574 196.283 159.574 208.379C159.574 225.567 159.366 239.361 159.366 243.603C159.366 246.999 161.684 251.033 168.001 249.759C218.553 232.78 254.993 184.825 254.993 128.169C255.202 57.2914 198.121 0 127.981 0Z" fill="white"/>
</svg>
