<svg width="251" height="250" viewBox="0 0 251 250" fill="none" xmlns="http://www.w3.org/2000/svg">
<path fill-rule="evenodd" clip-rule="evenodd" d="M125.671 60.8109C90.2195 60.8109 61.4812 89.5491 61.4812 125C61.4812 160.451 90.2195 189.189 125.671 189.189C161.121 189.189 189.86 160.451 189.86 125C189.86 89.5491 161.121 60.8109 125.671 60.8109ZM125.671 166.667C102.658 166.667 84.0037 148.012 84.0037 125C84.0037 101.988 102.658 83.3333 125.671 83.3333C148.682 83.3333 167.337 101.988 167.337 125C167.337 148.012 148.682 166.667 125.671 166.667Z" fill="white"/>
<path d="M192.396 73.2746C200.68 73.2746 207.396 66.5592 207.396 58.2748C207.396 49.9905 200.68 43.2746 192.396 43.2746C184.112 43.2746 177.396 49.9905 177.396 58.2748C177.396 66.5592 184.112 73.2746 192.396 73.2746Z" fill="white"/>
<path fill-rule="evenodd" clip-rule="evenodd" d="M125.671 0C91.7225 0 87.4657 0.143895 74.1331 0.752221C60.8283 1.35906 51.7416 3.47233 43.7907 6.56259C35.5708 9.75655 28.5999 14.0307 21.6502 20.9798C14.7011 27.9294 10.427 34.9004 7.233 43.1203C4.14274 51.0712 2.02947 60.1579 1.42263 73.4627C0.814305 86.7952 0.67041 91.052 0.67041 125C0.67041 158.948 0.814305 163.205 1.42263 176.537C2.02947 189.842 4.14274 198.929 7.233 206.88C10.427 215.1 14.7011 222.071 21.6502 229.02C28.5999 235.969 35.5708 240.243 43.7907 243.438C51.7416 246.528 60.8283 248.641 74.1331 249.248C87.4657 249.856 91.7225 250 125.671 250C159.618 250 163.875 249.856 177.208 249.248C190.513 248.641 199.599 246.528 207.55 243.438C215.77 240.243 222.741 235.969 229.691 229.02C236.64 222.071 240.914 215.1 244.108 206.88C247.198 198.929 249.311 189.842 249.918 176.537C250.527 163.205 250.67 158.948 250.67 125C250.67 91.052 250.527 86.7952 249.918 73.4627C249.311 60.1579 247.198 51.0712 244.108 43.1203C240.914 34.9004 236.64 27.9294 229.691 20.9798C222.741 14.0307 215.77 9.75655 207.55 6.56259C199.599 3.47233 190.513 1.35906 177.208 0.752221C163.875 0.143895 159.618 0 125.671 0ZM125.671 22.5225C159.047 22.5225 163 22.65 176.181 23.2514C188.369 23.8071 194.987 25.8435 199.392 27.5553C205.227 29.8229 209.391 32.5316 213.764 36.906C218.139 41.2799 220.848 45.4439 223.115 51.2786C224.827 55.6832 226.863 62.3019 227.419 74.4893C228.02 87.67 228.148 91.6237 228.148 125C228.148 158.376 228.02 162.33 227.419 175.511C226.863 187.698 224.827 194.317 223.115 198.721C220.848 204.556 218.139 208.72 213.764 213.094C209.391 217.468 205.227 220.177 199.392 222.445C194.987 224.157 188.369 226.193 176.181 226.749C163.002 227.35 159.049 227.478 125.671 227.478C92.2916 227.478 88.339 227.35 75.1597 226.749C62.9723 226.193 56.3537 224.157 51.949 222.445C46.1143 220.177 41.9503 217.468 37.5764 213.094C33.2025 208.72 30.4933 204.556 28.2257 198.721C26.5139 194.317 24.4775 187.698 23.9218 175.511C23.3204 162.33 23.1929 158.376 23.1929 125C23.1929 91.6237 23.3204 87.67 23.9218 74.4893C24.4775 62.3019 26.5139 55.6832 28.2257 51.2786C30.4933 45.4439 33.202 41.2799 37.5764 36.906C41.9503 32.5316 46.1143 29.8229 51.949 27.5553C56.3537 25.8435 62.9723 23.8071 75.1597 23.2514C88.3404 22.65 92.2941 22.5225 125.671 22.5225Z" fill="white"/>
</svg>
