<svg width="281" height="250" viewBox="0 0 281 250" fill="none" xmlns="http://www.w3.org/2000/svg">
<path d="M280.7 127.215C280.7 110.236 266.921 96.4567 249.942 96.4567C241.576 96.4567 234.194 99.6555 228.781 105.069C207.866 90.059 178.83 80.2165 146.842 78.9862L160.868 13.2874L206.389 22.8839C206.881 34.4488 216.478 43.7992 228.289 43.7992C240.346 43.7992 250.188 33.9567 250.188 21.8996C250.188 9.84254 240.346 0 228.289 0C219.677 0 212.295 4.92126 208.85 12.3031L157.915 1.47639C156.438 1.23033 154.962 1.47638 153.732 2.21457C152.501 2.95276 151.763 4.18308 151.271 5.65946L135.769 78.9862C103.043 79.9705 73.7613 89.5669 52.5999 105.069C47.1865 99.9016 39.5586 96.4567 31.4385 96.4567C14.4602 96.4567 0.680664 110.236 0.680664 127.215C0.680664 139.764 8.06255 150.344 18.8893 155.266C18.3972 158.219 18.1511 161.417 18.1511 164.616C18.1511 211.86 73.0232 250 140.937 250C208.85 250 263.722 211.86 263.722 164.616C263.722 161.417 263.476 158.465 262.984 155.512C273.072 150.591 280.7 139.764 280.7 127.215ZM70.3164 149.114C70.3164 137.057 80.159 127.215 92.2161 127.215C104.273 127.215 114.116 137.057 114.116 149.114C114.116 161.171 104.273 171.014 92.2161 171.014C80.159 171.014 70.3164 161.171 70.3164 149.114ZM192.61 206.939C177.6 221.949 149.057 222.933 140.69 222.933C132.324 222.933 103.535 221.703 88.7712 206.939C86.5566 204.724 86.5566 201.033 88.7712 198.819C90.9857 196.604 94.6767 196.604 96.8912 198.819C106.242 208.169 126.419 211.614 140.937 211.614C155.454 211.614 175.385 208.169 184.982 198.819C187.196 196.604 190.887 196.604 193.102 198.819C194.824 201.28 194.824 204.724 192.61 206.939ZM188.673 171.014C176.616 171.014 166.773 161.171 166.773 149.114C166.773 137.057 176.616 127.215 188.673 127.215C200.73 127.215 210.572 137.057 210.572 149.114C210.572 161.171 200.73 171.014 188.673 171.014Z" fill="white"/>
</svg>
