<svg width="251" height="250" viewBox="0 0 251 250" fill="none" xmlns="http://www.w3.org/2000/svg">
<path d="M125.677 0C56.6417 0 0.674805 55.9654 0.674805 125.001C0.674805 194.039 56.6417 250 125.677 250C194.72 250 250.681 194.039 250.681 125.001C250.681 55.9699 194.72 0.00597072 125.676 0.00597072L125.677 0ZM183.002 180.287C180.763 183.959 175.957 185.123 172.285 182.869C142.936 164.942 105.988 160.882 62.4766 170.823C58.2836 171.779 54.1041 169.151 53.1488 164.957C52.189 160.763 54.8057 156.583 59.0091 155.628C106.626 144.749 147.47 149.433 180.42 169.569C184.092 171.823 185.256 176.615 183.002 180.287ZM198.302 146.251C195.481 150.836 189.481 152.284 184.898 149.463C151.298 128.81 100.079 122.829 60.3361 134.893C55.1818 136.45 49.738 133.545 48.1737 128.4C46.6213 123.245 49.5275 117.812 54.6728 116.245C100.07 102.47 156.507 109.142 195.093 132.854C199.676 135.675 201.123 141.674 198.302 146.251ZM199.616 110.808C159.328 86.879 92.8588 84.6787 54.3937 96.3531C48.2169 98.2264 41.6849 94.7395 39.8131 88.5627C37.9413 82.383 41.4252 75.8555 47.6064 73.9777C91.7617 60.5733 165.165 63.1631 211.548 90.6988C217.116 93.9961 218.937 101.171 215.638 106.72C212.354 112.276 205.16 114.107 199.622 110.808H199.616Z" fill="white"/>
</svg>
