<svg width="358" height="250" viewBox="0 0 358 250" fill="none" xmlns="http://www.w3.org/2000/svg">
<path fill-rule="evenodd" clip-rule="evenodd" d="M318.432 7.46707C333.807 11.5828 345.89 23.6654 350.005 39.0405C357.443 66.8802 357.473 125 357.473 125C357.473 125 357.473 183.12 350.005 210.96C345.89 226.335 333.807 238.417 318.432 242.533C290.593 250 178.909 250 178.909 250C178.909 250 67.2269 250 39.3871 242.533C24.0121 238.417 11.9295 226.335 7.81375 210.96C0.346682 183.12 0.34668 125 0.34668 125C0.34668 125 0.346682 66.8802 7.81375 39.0405C11.9295 23.6654 24.0121 11.5828 39.3871 7.46707C67.2269 2.72468e-06 178.909 0 178.909 0C178.909 0 290.593 2.72468e-06 318.432 7.46707ZM235.943 125.005L143.163 178.568V71.4416L235.943 125.005Z" fill="white"/>
</svg>
