<svg width="331" height="250" viewBox="0 0 331 250" fill="none" xmlns="http://www.w3.org/2000/svg">
<path d="M280.13 20.9999C258.63 11.1667 235.797 3.99997 211.963 0C208.963 5.1667 205.63 12.1666 203.296 17.6666C177.947 13.9999 152.78 13.9999 127.78 17.6666C125.446 12.1666 121.946 5.1667 119.113 0C95.1132 3.99997 72.2799 11.1667 50.9299 20.9999C7.76338 84.6664 -3.90332 146.833 1.93001 208.166C30.5966 228.999 58.2635 241.666 85.4468 250C92.1135 241 98.1136 231.332 103.28 221.166C93.4469 217.5 84.1135 212.999 75.1135 207.666C77.4469 206 79.7803 204.167 81.947 202.333C136.28 227.167 195.13 227.167 248.796 202.333C251.13 204.167 253.297 206 255.63 207.666C246.63 212.999 237.297 217.5 227.463 221.166C232.63 231.332 238.63 241 245.296 250C272.463 241.666 300.297 228.999 328.813 208.166C335.979 137.167 317.463 75.5003 280.13 20.9999ZM110.78 170.333C94.4466 170.333 81.1133 155.5 81.1133 137.333C81.1133 119.167 94.1133 104.333 110.78 104.333C127.28 104.333 140.779 119.167 140.446 137.333C140.446 155.5 127.28 170.333 110.78 170.333ZM220.297 170.333C203.963 170.333 190.613 155.5 190.613 137.333C190.613 119.167 203.63 104.333 220.297 104.333C236.797 104.333 250.296 119.167 249.963 137.333C249.963 155.5 236.963 170.333 220.297 170.333Z" fill="white"/>
</svg>
