<svg width="159" height="250" viewBox="0 0 159 250" fill="none" xmlns="http://www.w3.org/2000/svg">
<path d="M79.1964 0.0119971C78.918 -0.040627 78.6326 0.0826529 78.4812 0.327171L0.435192 126.406C0.336609 126.565 0.306939 126.758 0.352983 126.939C0.399027 127.121 0.516836 127.276 0.6794 127.369L78.7256 172.029C78.8703 172.112 79.0373 172.138 79.1961 172.108C79.355 172.138 79.5221 172.112 79.6667 172.029L157.713 127.369C157.876 127.276 157.994 127.121 158.04 126.939C158.086 126.758 158.056 126.565 157.957 126.406L79.9115 0.327171C79.7601 0.0826531 79.4748 -0.040627 79.1964 0.0119971Z" fill="white"/>
<path d="M2.25562 141.215C1.97416 141.05 1.61593 141.105 1.39639 141.346C1.17686 141.587 1.15583 141.949 1.34595 142.213L78.5072 249.712C78.6652 249.932 78.9351 250.037 79.1963 249.988C79.4574 250.037 79.7274 249.932 79.8853 249.712L157.046 142.213C157.236 141.949 157.215 141.587 156.996 141.346C156.776 141.105 156.418 141.05 156.136 141.215L79.1963 186.209L2.25562 141.215Z" fill="white"/>
</svg>
