<svg width="251" height="250" viewBox="0 0 251 250" fill="none" xmlns="http://www.w3.org/2000/svg">
<path d="M0.385254 125C0.385254 178.365 33.8332 223.927 80.9061 241.854C79.7603 232.094 78.5415 216 81.1665 204.708C83.4269 195 95.7603 142.854 95.7603 142.854C95.7603 142.854 92.0415 135.406 92.0415 124.375C92.0415 107.083 102.062 94.1667 114.552 94.1667C125.177 94.1667 130.302 102.135 130.302 111.688C130.302 122.365 123.5 138.323 119.989 153.125C117.062 165.51 126.208 175.615 138.417 175.615C160.531 175.615 177.542 152.292 177.542 118.625C177.542 88.8229 156.125 68 125.552 68C90.1561 68 69.3748 94.5521 69.3748 122C69.3748 132.698 73.4894 144.156 78.6353 150.396C79.074 150.867 79.3839 151.443 79.5354 152.069C79.6868 152.695 79.6746 153.349 79.4998 153.969C78.5519 157.906 76.4478 166.354 76.0415 168.083C75.4894 170.354 74.2394 170.844 71.8748 169.74C56.3332 162.51 46.6248 139.792 46.6248 121.542C46.6248 82.2813 75.1353 46.2396 128.833 46.2396C172 46.2396 205.552 77 205.552 118.104C205.552 160.99 178.521 195.51 140.979 195.51C128.364 195.51 116.521 188.948 112.458 181.208C112.458 181.208 106.219 204.979 104.708 210.792C101.771 222.083 93.6248 236.375 88.5728 244.49C100.219 248.073 112.573 250 125.385 250C194.417 250 250.385 194.031 250.385 125C250.385 55.9688 194.417 0 125.385 0C56.354 0 0.385254 55.9688 0.385254 125Z" fill="white"/>
</svg>
