<svg width="219" height="250" viewBox="0 0 219 250" fill="none" xmlns="http://www.w3.org/2000/svg">
<path d="M79.2517 207.073C98.6843 207.04 114.618 191.658 115.334 172.24V0H158.414C158.406 0.746623 158.414 1.49325 158.435 2.23987C158.467 3.41779 158.536 4.59163 158.642 5.76141C158.793 7.46013 159.033 9.15275 159.33 10.8332C162.333 26.9374 171.825 41.1009 185.582 49.9973C195.237 56.4138 206.573 59.8336 218.165 59.8296V69.1471C218.193 69.1532 218.218 69.1573 218.246 69.1634V102.495C196.783 102.544 175.853 95.8384 158.414 83.3289V170.908C158.325 214.608 122.869 249.987 79.1683 249.987C27.9292 250.987 -11.796 195.806 3.57188 146.995C13.9575 114.003 44.5793 91.5885 79.1683 91.6618C82.7407 91.7126 86.3049 92.0198 89.8346 92.5793L89.7929 102.745V103.246L89.7512 136.577C86.2968 135.503 82.704 134.941 79.0848 134.909C62.4902 134.994 48.0826 146.365 44.1419 162.485C38.6381 184.989 56.3525 206.872 79.2517 207.073Z" fill="white"/>
</svg>
