<svg width="309" height="250" viewBox="0 0 309 250" fill="none" xmlns="http://www.w3.org/2000/svg">
<path d="M276.702 62.2369C276.89 64.9492 276.89 67.6615 276.89 70.3988C276.89 153.806 213.394 250 97.2887 250V249.95C62.9908 250 29.4054 240.176 0.532227 221.652C5.51941 222.252 10.5316 222.552 15.5563 222.564C43.9795 222.589 71.5903 213.052 93.9514 195.491C66.9406 194.978 43.2545 177.367 34.9801 151.656C44.442 153.481 54.1914 153.106 63.4783 150.569C34.0301 144.619 12.844 118.746 12.844 88.6977C12.844 88.4227 12.844 88.1602 12.844 87.8977C21.6184 92.7849 31.4428 95.4973 41.4922 95.7972C13.7564 77.2609 5.20693 40.3632 21.9559 11.5151C54.0039 50.9501 101.288 74.9236 152.048 77.4609C146.961 55.5373 153.91 32.5637 170.309 17.1522C195.732 -6.74629 235.717 -5.52137 259.616 19.8895C273.753 17.1022 287.302 11.915 299.701 4.56549C294.989 19.1771 285.127 31.5888 271.953 39.4758C284.464 38.0009 296.689 34.6511 308.2 29.5389C299.726 42.2381 289.052 53.2999 276.702 62.2369Z" fill="white"/>
</svg>
